<svg width="18" height="15" viewBox="0 0 18 15" fill="none" xmlns="http://www.w3.org/2000/svg">
<g clip-path="url(#clip0_75_192)">
<path d="M3.02295 12.1375H8.08021V13.1489H3.02295V12.1375Z" fill="white"/>
<path d="M3.02295 9.10309H8.08021V10.1145H3.02295V9.10309Z" fill="white"/>
<path d="M14.1489 7.08021H4.0344C3.76615 7.08021 3.50888 6.97364 3.3192 6.78396C3.12951 6.59428 3.02295 6.33701 3.02295 6.06876V3.0344C3.02295 2.76615 3.12951 2.50888 3.3192 2.3192C3.50888 2.12951 3.76615 2.02295 4.0344 2.02295H14.1489C14.4172 2.02295 14.6744 2.12951 14.8641 2.3192C15.0538 2.50888 15.1604 2.76615 15.1604 3.0344V6.06876C15.1604 6.33701 15.0538 6.59428 14.8641 6.78396C14.6744 6.97364 14.4172 7.08021 14.1489 7.08021ZM4.0344 3.0344V6.06876H14.1489V3.0344H4.0344Z" fill="white"/>
<path d="M14.149 14.1603H11.1146C10.8463 14.1603 10.5891 14.0538 10.3994 13.8641C10.2097 13.6744 10.1031 13.4171 10.1031 13.1489V10.1145C10.1031 9.84629 10.2097 9.58902 10.3994 9.39934C10.5891 9.20965 10.8463 9.10309 11.1146 9.10309H14.149C14.4172 9.10309 14.6745 9.20965 14.8642 9.39934C15.0538 9.58902 15.1604 9.84629 15.1604 10.1145V13.1489C15.1604 13.4171 15.0538 13.6744 14.8642 13.8641C14.6745 14.0538 14.4172 14.1603 14.149 14.1603ZM11.1146 10.1145V13.1489H14.149V10.1145H11.1146Z" fill="white"/>
</g>
<defs>
<clipPath id="clip0_75_192">
<rect width="16.1342" height="14.7069" fill="white" transform="translate(0.949219 0.12793)"/>
</clipPath>
</defs>
</svg>
