<svg width="17" height="17" viewBox="0 0 17 17" fill="none" xmlns="http://www.w3.org/2000/svg">
<path d="M11.115 12.2436L4.14794 4.81851C3.90989 4.56482 3.92287 4.15704 4.17656 3.919C4.43025 3.68096 4.83803 3.69393 5.07607 3.94762L12.0432 11.3727C12.2812 11.6264 12.2682 12.0341 12.0145 12.2722C11.7609 12.5102 11.3531 12.4973 11.115 12.2436Z" fill="#929292"/>
<path d="M3.91868 12.0146C3.68063 11.7609 3.69361 11.3531 3.9473 11.1151L11.3724 4.14797C11.626 3.90993 12.0338 3.9229 12.2719 4.17659C12.5099 4.43028 12.4969 4.83806 12.2432 5.0761L4.81819 12.0432C4.5645 12.2812 4.15672 12.2683 3.91868 12.0146Z" fill="#929292"/>
</svg>
