<svg width="16" height="14" viewBox="0 0 16 14" fill="none" xmlns="http://www.w3.org/2000/svg">
<path d="M4.44163 5.42616C3.89593 5.42616 3.45506 5.86703 3.45506 6.41273C3.45506 6.95843 3.89593 7.39931 4.44163 7.39931C4.98733 7.39931 5.4282 6.95843 5.4282 6.41273C5.4282 5.86703 4.98733 5.42616 4.44163 5.42616ZM7.89464 5.42616C7.34894 5.42616 6.90807 5.86703 6.90807 6.41273C6.90807 6.95843 7.34894 7.39931 7.89464 7.39931C8.44034 7.39931 8.88121 6.95843 8.88121 6.41273C8.88121 5.86703 8.44034 5.42616 7.89464 5.42616ZM11.3476 5.42616C10.8019 5.42616 10.3611 5.86703 10.3611 6.41273C10.3611 6.95843 10.8019 7.39931 11.3476 7.39931C11.8933 7.39931 12.3342 6.95843 12.3342 6.41273C12.3342 5.86703 11.8933 5.42616 11.3476 5.42616ZM7.89464 0C3.53522 0 0.00204616 2.87031 0.00204616 6.41273C0.00204616 7.88026 0.615572 9.22447 1.63298 10.3066C1.1736 11.5213 0.217859 12.5511 0.202444 12.5634C-0.00103688 12.7792 -0.0565317 13.0937 0.060624 13.365C0.17778 13.6363 0.446005 13.812 0.741977 13.812C2.63805 13.812 4.13333 13.0197 5.03049 12.3846C5.92149 12.6651 6.8834 12.8255 7.89464 12.8255C12.2541 12.8255 15.7872 9.95515 15.7872 6.41273C15.7872 2.87031 12.2541 0 7.89464 0ZM7.89464 11.3456C7.07147 11.3456 6.25754 11.2192 5.47753 10.9726L4.77768 10.7506L4.17649 11.176C3.73561 11.4874 3.13134 11.8358 2.40374 12.0701C2.6288 11.6971 2.8477 11.2778 3.01726 10.8307L3.34407 9.9644L2.70896 9.29229C2.15093 8.69727 1.48191 7.71378 1.48191 6.41273C1.48191 3.69349 4.35839 1.47986 7.89464 1.47986C11.4309 1.47986 14.3074 3.69349 14.3074 6.41273C14.3074 9.13198 11.4309 11.3456 7.89464 11.3456Z" fill="white"/>
</svg>
