<svg width="14" height="13" viewBox="0 0 14 13" fill="none" xmlns="http://www.w3.org/2000/svg">
<path fill-rule="evenodd" clip-rule="evenodd" d="M7.67335 9.41729H8.8941C11.302 9.41729 13.254 7.46533 13.254 5.05743C13.254 2.64954 11.302 0.697577 8.8941 0.697577H5.05743C2.64954 0.697577 0.697577 2.64954 0.697577 5.05743C0.697577 7.81792 2.5171 9.50578 4.50771 10.5425C5.49638 11.0575 6.49221 11.3902 7.24531 11.5942C7.39951 11.636 7.5429 11.6722 7.67335 11.7033V9.41729ZM8.37092 12.5564C8.37092 12.5564 8.1072 12.5179 7.67335 12.4196C5.663 11.9637 0 10.2212 0 5.05743C0 2.2643 2.2643 0 5.05743 0H8.8941C11.6872 0 13.9515 2.2643 13.9515 5.05743C13.9515 7.85056 11.6872 10.1149 8.8941 10.1149H8.37092V12.5564Z" fill="white"/>
<path fill-rule="evenodd" clip-rule="evenodd" d="M7.46639 2.11013C7.00536 2.09544 6.5226 2.18156 6.12045 2.37663C5.71805 2.57182 5.36334 2.89486 5.24272 3.36475C5.19484 3.55132 5.30725 3.74141 5.49385 3.7893C5.68042 3.83719 5.87051 3.72477 5.9184 3.53817C5.97138 3.33183 6.13674 3.14404 6.42491 3.00424C6.70934 2.8663 7.07676 2.79567 7.44421 2.80735C7.81364 2.81911 8.14831 2.91272 8.37927 3.06643C8.47819 3.13225 8.56954 3.21488 8.63326 3.32544C8.69925 3.43985 8.71966 3.55634 8.71966 3.66223C8.71966 3.83311 8.67016 3.95609 8.59674 4.05267C8.51959 4.15417 8.4039 4.24178 8.25378 4.31443C7.94789 4.46249 7.56506 4.51732 7.3012 4.53497C7.11802 4.54725 6.97571 4.69939 6.97571 4.88299V5.40618C6.97571 5.59881 7.13187 5.75496 7.3245 5.75496C7.50287 5.75496 7.65038 5.62079 7.67085 5.44803C7.68832 5.30039 7.79746 5.18006 7.9427 5.14828C8.14691 5.10364 8.36013 5.03796 8.55771 4.94232C8.99911 4.72869 9.41723 4.33281 9.41723 3.66223C9.41723 3.13427 9.14584 2.73868 8.76577 2.4857C8.39745 2.24057 7.92564 2.12474 7.46639 2.11013ZM5.81599 1.74899C6.33593 1.49678 6.93403 1.39525 7.48857 1.4129C8.0375 1.43034 8.64648 1.56839 9.15222 1.90497C9.69023 2.26303 10.1148 2.86023 10.1148 3.66223C10.1148 4.69559 9.44405 5.28832 8.86161 5.57025C8.67557 5.66027 8.48503 5.72738 8.30292 5.77767C8.15301 6.17226 7.77168 6.45254 7.3245 6.45254C6.7466 6.45254 6.27814 5.98405 6.27814 5.40618V4.88299C6.27814 4.33222 6.70509 3.87573 7.25461 3.83897C7.48924 3.82327 7.76527 3.7759 7.94988 3.68654C7.9736 3.67507 7.99184 3.66475 8.00569 3.6561C8.00188 3.65334 7.99759 3.65038 7.99278 3.64717C7.89885 3.58463 7.70116 3.51344 7.42202 3.50458C7.14829 3.49586 6.89619 3.55097 6.72936 3.63189C6.63624 3.67706 6.60098 3.7126 6.59027 3.72606C6.44057 4.27715 5.87532 4.60742 5.3204 4.46497C4.76066 4.3213 4.42335 3.75104 4.56705 3.1913C4.75519 2.45843 5.29874 1.99991 5.81599 1.74899ZM7.3245 7.32451C7.13187 7.32451 6.97571 7.48067 6.97571 7.6733C6.97571 7.86594 7.13187 8.02209 7.3245 8.02209C7.51714 8.02209 7.67329 7.86594 7.67329 7.6733C7.67329 7.48067 7.51714 7.32451 7.3245 7.32451ZM6.27814 7.6733C6.27814 7.09543 6.7466 6.62694 7.3245 6.62694C7.90238 6.62694 8.37087 7.09543 8.37087 7.6733C8.37087 8.25121 7.90238 8.71967 7.3245 8.71967C6.7466 8.71967 6.27814 8.25121 6.27814 7.6733Z" fill="white"/>
</svg>
