<svg width="18" height="16" viewBox="0 0 18 16" fill="none" xmlns="http://www.w3.org/2000/svg">
<path d="M12.9313 7.60154H12.259C12.0807 7.60154 11.9097 7.6661 11.7836 7.78102C11.6576 7.89594 11.5867 8.0518 11.5867 8.21432C11.5867 8.37685 11.6576 8.53271 11.7836 8.64763C11.9097 8.76255 12.0807 8.82711 12.259 8.82711H12.9313C13.1096 8.82711 13.2805 8.76255 13.4066 8.64763C13.5327 8.53271 13.6035 8.37685 13.6035 8.21432C13.6035 8.0518 13.5327 7.89594 13.4066 7.78102C13.2805 7.6661 13.1096 7.60154 12.9313 7.60154ZM12.9313 10.0527H12.259C12.0807 10.0527 11.9097 10.1172 11.7836 10.2322C11.6576 10.3471 11.5867 10.503 11.5867 10.6655C11.5867 10.828 11.6576 10.9839 11.7836 11.0988C11.9097 11.2137 12.0807 11.2783 12.259 11.2783H12.9313C13.1096 11.2783 13.2805 11.2137 13.4066 11.0988C13.5327 10.9839 13.6035 10.828 13.6035 10.6655C13.6035 10.503 13.5327 10.3471 13.4066 10.2322C13.2805 10.1172 13.1096 10.0527 12.9313 10.0527ZM8.89772 6.37596H12.9313C13.1096 6.37596 13.2805 6.3114 13.4066 6.19648C13.5327 6.08156 13.6035 5.92569 13.6035 5.76317C13.6035 5.60065 13.5327 5.44479 13.4066 5.32987C13.2805 5.21495 13.1096 5.15039 12.9313 5.15039H8.89772C8.71943 5.15039 8.54844 5.21495 8.42236 5.32987C8.29629 5.44479 8.22547 5.60065 8.22547 5.76317C8.22547 5.92569 8.29629 6.08156 8.42236 6.19648C8.54844 6.3114 8.71943 6.37596 8.89772 6.37596ZM15.6203 2.69923H6.2087C6.0304 2.69923 5.85941 2.7638 5.73334 2.87872C5.60727 2.99364 5.53644 3.1495 5.53644 3.31202V5.15039H3.51967C3.34138 5.15039 3.17038 5.21495 3.04431 5.32987C2.91824 5.44479 2.84741 5.60065 2.84741 5.76317V11.8911C2.84741 12.3786 3.05989 12.8462 3.43811 13.191C3.81633 13.5357 4.3293 13.7294 4.86418 13.7294H13.6035C14.3167 13.7294 15.0007 13.4712 15.5049 13.0115C16.0092 12.5518 16.2925 11.9283 16.2925 11.2783V3.31202C16.2925 3.1495 16.2217 2.99364 16.0956 2.87872C15.9696 2.7638 15.7986 2.69923 15.6203 2.69923ZM5.53644 11.8911C5.53644 12.0536 5.46561 12.2094 5.33954 12.3244C5.21347 12.4393 5.04248 12.5038 4.86418 12.5038C4.68589 12.5038 4.5149 12.4393 4.38882 12.3244C4.26275 12.2094 4.19193 12.0536 4.19193 11.8911V6.37596H5.53644V11.8911ZM14.948 11.2783C14.948 11.6033 14.8064 11.915 14.5542 12.1449C14.3021 12.3747 13.9601 12.5038 13.6035 12.5038H6.75995C6.83821 12.3073 6.87913 12.1001 6.88095 11.8911V3.92481H14.948V11.2783ZM8.89772 8.82711H9.56998C9.74827 8.82711 9.91926 8.76255 10.0453 8.64763C10.1714 8.53271 10.2422 8.37685 10.2422 8.21432C10.2422 8.0518 10.1714 7.89594 10.0453 7.78102C9.91926 7.6661 9.74827 7.60154 9.56998 7.60154H8.89772C8.71943 7.60154 8.54844 7.6661 8.42236 7.78102C8.29629 7.89594 8.22547 8.0518 8.22547 8.21432C8.22547 8.37685 8.29629 8.53271 8.42236 8.64763C8.54844 8.76255 8.71943 8.82711 8.89772 8.82711ZM8.89772 11.2783H9.56998C9.74827 11.2783 9.91926 11.2137 10.0453 11.0988C10.1714 10.9839 10.2422 10.828 10.2422 10.6655C10.2422 10.503 10.1714 10.3471 10.0453 10.2322C9.91926 10.1172 9.74827 10.0527 9.56998 10.0527H8.89772C8.71943 10.0527 8.54844 10.1172 8.42236 10.2322C8.29629 10.3471 8.22547 10.503 8.22547 10.6655C8.22547 10.828 8.29629 10.9839 8.42236 11.0988C8.54844 11.2137 8.71943 11.2783 8.89772 11.2783Z" fill="#002C5F"/>
</svg>
