<svg width="13" height="13" viewBox="0 0 13 13" fill="none" xmlns="http://www.w3.org/2000/svg">
<path d="M12.5357 1.39285H4.875V2.32142H12.5357V1.39285Z" fill="white"/>
<path d="M0 1.85714C0 2.22445 0.10892 2.58351 0.312985 2.88892C0.517051 3.19432 0.807097 3.43236 1.14645 3.57292C1.48579 3.71348 1.8592 3.75026 2.21945 3.6786C2.5797 3.60694 2.91061 3.43007 3.17034 3.17034C3.43007 2.91061 3.60694 2.5797 3.6786 2.21945C3.75026 1.8592 3.71348 1.48579 3.57292 1.14645C3.43236 0.807097 3.19432 0.517051 2.88892 0.312985C2.58351 0.10892 2.22445 0 1.85714 0C1.36477 0.000552989 0.892717 0.196393 0.544555 0.544555C0.196393 0.892717 0.000552989 1.36477 0 1.85714ZM1.85714 0.928571C2.0408 0.928571 2.22033 0.983031 2.37303 1.08506C2.52573 1.1871 2.64475 1.33212 2.71503 1.50179C2.78531 1.67147 2.8037 1.85817 2.76787 2.0383C2.73204 2.21842 2.6436 2.38388 2.51374 2.51374C2.38388 2.6436 2.21842 2.73204 2.0383 2.76787C1.85817 2.8037 1.67147 2.78531 1.50179 2.71503C1.33212 2.64475 1.1871 2.52573 1.08506 2.37303C0.983031 2.22033 0.928571 2.0408 0.928571 1.85714C0.928848 1.61096 1.02677 1.37493 1.20085 1.20085C1.37493 1.02677 1.61096 0.928848 1.85714 0.928571Z" fill="white"/>
<path d="M12.5357 6.03571H4.875V6.96428H12.5357V6.03571Z" fill="white"/>
<path d="M1.85714 8.35714C2.22445 8.35714 2.58351 8.24822 2.88892 8.04415C3.19432 7.84009 3.43236 7.55004 3.57292 7.21069C3.71348 6.87135 3.75026 6.49794 3.6786 6.13769C3.60694 5.77744 3.43007 5.44652 3.17034 5.1868C2.91061 4.92707 2.5797 4.7502 2.21945 4.67854C1.8592 4.60688 1.48579 4.64366 1.14645 4.78422C0.807097 4.92478 0.517051 5.16282 0.312985 5.46822C0.10892 5.77363 0 6.13269 0 6.5C0.000552989 6.99237 0.196393 7.46442 0.544555 7.81258C0.892717 8.16075 1.36477 8.35659 1.85714 8.35714ZM1.85714 5.57143C2.0408 5.57143 2.22033 5.62589 2.37303 5.72792C2.52573 5.82995 2.64475 5.97497 2.71503 6.14465C2.78531 6.31432 2.8037 6.50103 2.76787 6.68115C2.73204 6.86128 2.6436 7.02673 2.51374 7.1566C2.38388 7.28646 2.21842 7.3749 2.0383 7.41073C1.85817 7.44656 1.67147 7.42817 1.50179 7.35788C1.33212 7.2876 1.1871 7.16859 1.08506 7.01588C0.983031 6.86318 0.928571 6.68365 0.928571 6.5C0.928848 6.25381 1.02677 6.01778 1.20085 5.8437C1.37493 5.66962 1.61096 5.5717 1.85714 5.57143Z" fill="white"/>
<path d="M12.5357 10.6786H4.875V11.6071H12.5357V10.6786Z" fill="white"/>
<path d="M1.85714 13C2.22445 13 2.58351 12.8911 2.88892 12.687C3.19432 12.4829 3.43236 12.1929 3.57292 11.8535C3.71348 11.5142 3.75026 11.1408 3.6786 10.7805C3.60694 10.4203 3.43007 10.0894 3.17034 9.82965C2.91061 9.56993 2.5797 9.39305 2.21945 9.32139C1.8592 9.24973 1.48579 9.28651 1.14645 9.42707C0.807097 9.56764 0.517051 9.80567 0.312985 10.1111C0.10892 10.4165 0 10.7755 0 11.1428C0.000552989 11.6352 0.196393 12.1073 0.544555 12.4554C0.892717 12.8036 1.36477 12.9994 1.85714 13ZM1.85714 10.2143C2.0408 10.2143 2.22033 10.2687 2.37303 10.3708C2.52573 10.4728 2.64475 10.6178 2.71503 10.7875C2.78531 10.9572 2.8037 11.1439 2.76787 11.324C2.73204 11.5041 2.6436 11.6696 2.51374 11.7994C2.38388 11.9293 2.21842 12.0177 2.0383 12.0536C1.85817 12.0894 1.67147 12.071 1.50179 12.0007C1.33212 11.9305 1.1871 11.8114 1.08506 11.6587C0.983031 11.506 0.928571 11.3265 0.928571 11.1428C0.928848 10.8967 1.02677 10.6606 1.20085 10.4866C1.37493 10.3125 1.61096 10.2146 1.85714 10.2143Z" fill="white"/>
</svg>
