<svg width="18" height="15" viewBox="0 0 18 15" fill="none" xmlns="http://www.w3.org/2000/svg">
<path d="M14.5456 4.9023L10.4304 1.67904C10.0532 1.37758 9.56478 1.21091 9.05865 1.21091C8.55253 1.21091 8.06415 1.37758 7.68691 1.67904L3.57168 4.9023C3.35382 5.07638 3.17998 5.28993 3.06171 5.52872C2.94345 5.76752 2.88348 6.02608 2.88581 6.2872V11.643C2.88581 12.1305 3.10259 12.5981 3.48847 12.9429C3.87435 13.2876 4.39771 13.4813 4.94342 13.4813H13.1739C13.7196 13.4813 14.243 13.2876 14.6288 12.9429C15.0147 12.5981 15.2315 12.1305 15.2315 11.643V6.28108C15.2328 6.02099 15.1724 5.7636 15.0542 5.52593C14.9359 5.28825 14.7626 5.07569 14.5456 4.9023ZM10.4304 12.2558H7.68691V9.19182C7.68691 9.0293 7.75917 8.87343 7.8878 8.75851C8.01642 8.64359 8.19088 8.57903 8.37278 8.57903H9.74452C9.92643 8.57903 10.1009 8.64359 10.2295 8.75851C10.3581 8.87343 10.4304 9.0293 10.4304 9.19182V12.2558ZM13.8598 11.643C13.8598 11.8055 13.7875 11.9614 13.6589 12.0763C13.5302 12.1912 13.3558 12.2558 13.1739 12.2558H11.8021V9.19182C11.8021 8.70425 11.5854 8.23666 11.1995 7.8919C10.8136 7.54714 10.2902 7.35345 9.74452 7.35345H8.37278C7.82707 7.35345 7.30371 7.54714 6.91783 7.8919C6.53195 8.23666 6.31517 8.70425 6.31517 9.19182V12.2558H4.94342C4.76152 12.2558 4.58706 12.1912 4.45844 12.0763C4.32981 11.9614 4.25755 11.8055 4.25755 11.643V6.28108C4.25767 6.19407 4.27853 6.10808 4.31874 6.02884C4.35895 5.94959 4.41759 5.87891 4.49075 5.82148L8.60598 2.60435C8.73114 2.50611 8.89205 2.45193 9.05865 2.45193C9.22526 2.45193 9.38616 2.50611 9.51133 2.60435L13.6266 5.82148C13.6997 5.87891 13.7584 5.94959 13.7986 6.02884C13.8388 6.10808 13.8596 6.19407 13.8598 6.28108V11.643Z" fill="white"/>
</svg>
