<svg width="15" height="15" viewBox="0 0 15 15" fill="none" xmlns="http://www.w3.org/2000/svg">
<path d="M0 0V14.1879H14.1832V0H0ZM0.801338 0.801338H3.52033V3.24241H0.801338V0.801338ZM4.4421 0.801338H6.73958V2.807L6.83685 2.5754C6.94629 2.31793 7.31685 2.21798 7.54092 2.38549L7.65672 2.4735V0.801338H10.1858V3.24241H8.68966L9.93104 4.16418H10.1858V4.35409L11.1029 5.03963V4.16418H11.7422L12.1266 3.24241H11.1029V0.801338H13.3819V3.1683L12.9882 2.38549L12.613 3.27947L11.5106 5.91508L7.71694 3.09419L7.263 2.75605L7.04529 3.27483L4.96089 8.17087L4.23366 6.64694L3.69635 5.51673L3.40453 6.73495L2.75605 9.40299L0.838395 5.87803L0.801338 5.89655V4.16418H3.52033V5.09522C3.73496 5.00618 4.01007 5.10935 4.11323 5.31755L4.4421 6.00772V4.16418H6.16521L6.5543 3.24241H4.4421V0.801338ZM7.63819 4.14102L11.4364 6.96655L11.895 7.30469L12.1127 6.78127L13.0576 4.51621L13.3819 5.1647V6.46166H12.7473L12.5389 6.95729V6.96192L12.3628 7.3788H13.3819V9.90788H11.1029V7.3788H11.2141L11.1632 7.34174C11.1616 7.34021 11.1601 7.33867 11.1585 7.33711L9.982 6.46166H7.65673V5.27586L6.73959 7.43901V9.90788H5.68812L5.43336 10.5147C5.36359 10.6768 5.19426 10.791 5.0178 10.7948C4.84134 10.7987 4.66715 10.6921 4.59033 10.5332L4.16419 9.63922L4.11324 9.53269L3.79826 10.8389C3.79827 10.8405 3.79827 10.842 3.79826 10.8435L3.52497 11.9645C3.5235 11.9691 3.52196 11.9738 3.52035 11.9784V13.3819H0.801353V10.825H1.98715L1.48689 9.90788H0.801353V7.67525L2.52446 10.8435L3.07567 11.8533L3.34896 10.7324L3.96965 8.16161L4.58108 9.44005L5.00722 10.334L5.39168 9.42615L7.63819 4.14102ZM1.68605 6.46166L2.18168 7.3788H2.76994L2.95523 6.62841V6.62378L2.99228 6.46166H1.68605ZM4.65517 6.46166L4.93773 7.04529L5.18785 6.46166H4.65517ZM7.65672 7.3788H10.1858V9.90788H7.65672V7.3788ZM4.4421 10.825H6.73958V13.3819H4.4421V10.825ZM7.65672 10.825H10.1858V13.3819H7.65672V10.825ZM11.1029 10.825H13.3819V13.3819H11.1029V10.825Z" fill="white"/>
</svg>
