<svg width="17" height="17" viewBox="0 0 17 17" fill="none" xmlns="http://www.w3.org/2000/svg">
<path d="M5.3125 9.5625H9.5625V10.625H5.3125V9.5625Z" fill="white"/>
<path d="M5.3125 6.90625H11.6875V7.96875H5.3125V6.90625Z" fill="white"/>
<path d="M5.3125 12.2188H7.96875V13.2812H5.3125V12.2188Z" fill="white"/>
<path d="M13.2812 2.65625H11.6875V2.125C11.6875 1.84321 11.5756 1.57296 11.3763 1.3737C11.177 1.17444 10.9068 1.0625 10.625 1.0625H6.375C6.09321 1.0625 5.82296 1.17444 5.6237 1.3737C5.42444 1.57296 5.3125 1.84321 5.3125 2.125V2.65625H3.71875C3.43696 2.65625 3.16671 2.76819 2.96745 2.96745C2.76819 3.16671 2.65625 3.43696 2.65625 3.71875V14.875C2.65625 15.1568 2.76819 15.427 2.96745 15.6263C3.16671 15.8256 3.43696 15.9375 3.71875 15.9375H13.2812C13.563 15.9375 13.8333 15.8256 14.0326 15.6263C14.2318 15.427 14.3438 15.1568 14.3438 14.875V3.71875C14.3438 3.43696 14.2318 3.16671 14.0326 2.96745C13.8333 2.76819 13.563 2.65625 13.2812 2.65625ZM6.375 2.125H10.625V4.25H6.375V2.125ZM13.2812 14.875H3.71875V3.71875H5.3125V5.3125H11.6875V3.71875H13.2812V14.875Z" fill="white"/>
</svg>
