<svg width="18" height="17" viewBox="0 0 18 17" fill="none" xmlns="http://www.w3.org/2000/svg">
<path d="M7.82979 11.7146H9.2534V7.82162H7.82979V11.7146ZM8.54159 1.98212C4.60889 1.98212 1.42358 4.88565 1.42358 8.47046C1.42358 12.0553 4.60889 14.9588 8.54159 14.9588C12.4743 14.9588 15.6596 12.0553 15.6596 8.47046C15.6596 4.88565 12.4743 1.98212 8.54159 1.98212ZM8.54159 13.6611C5.40255 13.6611 2.84719 11.3318 2.84719 8.47046C2.84719 5.6091 5.40255 3.27978 8.54159 3.27978C11.6806 3.27978 14.236 5.6091 14.236 8.47046C14.236 11.3318 11.6806 13.6611 8.54159 13.6611ZM7.82979 6.52396H9.2534V5.22629H7.82979V6.52396Z" fill="white"/>
</svg>
