<svg width="39" height="40" viewBox="0 0 39 40" fill="none" xmlns="http://www.w3.org/2000/svg">
<path d="M19.4969 0.74556C8.76058 0.74556 0.0117188 9.49442 0.0117188 20.2308C0.0117188 30.9671 8.76058 39.716 19.4969 39.716C30.2333 39.716 38.9821 30.9671 38.9821 20.2308C38.9821 9.49442 30.2333 0.74556 19.4969 0.74556ZM18.0355 12.4367C18.0355 11.6378 18.698 10.9753 19.4969 10.9753C20.2958 10.9753 20.9583 11.6378 20.9583 12.4367V22.1793C20.9583 22.9782 20.2958 23.6407 19.4969 23.6407C18.698 23.6407 18.0355 22.9782 18.0355 22.1793V12.4367ZM21.2896 28.7653C21.1921 29.0186 21.0557 29.2134 20.8804 29.4083C20.6855 29.5837 20.4712 29.7201 20.2374 29.8175C20.0035 29.9149 19.7502 29.9734 19.4969 29.9734C19.2436 29.9734 18.9903 29.9149 18.7565 29.8175C18.5227 29.7201 18.3083 29.5837 18.1135 29.4083C17.9381 29.2134 17.8017 29.0186 17.7043 28.7653C17.6069 28.5315 17.5484 28.2782 17.5484 28.0248C17.5484 27.7715 17.6069 27.5182 17.7043 27.2844C17.8017 27.0506 17.9381 26.8363 18.1135 26.6414C18.3083 26.466 18.5227 26.3296 18.7565 26.2322C19.2241 26.0374 19.7697 26.0374 20.2374 26.2322C20.4712 26.3296 20.6855 26.466 20.8804 26.6414C21.0557 26.8363 21.1921 27.0506 21.2896 27.2844C21.387 27.5182 21.4454 27.7715 21.4454 28.0248C21.4454 28.2782 21.387 28.5315 21.2896 28.7653Z" fill="#69ACFF"/>
</svg>
