<svg width="56" height="13" viewBox="0 0 56 13" fill="none" xmlns="http://www.w3.org/2000/svg">
<path d="M0.860795 10V1.27273H2.44176V8.67472H6.28551V10H0.860795ZM10.4446 10.1278C9.8054 10.1278 9.25142 9.98722 8.78267 9.70597C8.31392 9.42472 7.95028 9.03125 7.69176 8.52557C7.43608 8.01989 7.30824 7.42898 7.30824 6.75284C7.30824 6.0767 7.43608 5.48437 7.69176 4.97585C7.95028 4.46733 8.31392 4.07244 8.78267 3.79119C9.25142 3.50994 9.8054 3.36932 10.4446 3.36932C11.0838 3.36932 11.6378 3.50994 12.1065 3.79119C12.5753 4.07244 12.9375 4.46733 13.1932 4.97585C13.4517 5.48437 13.581 6.0767 13.581 6.75284C13.581 7.42898 13.4517 8.01989 13.1932 8.52557C12.9375 9.03125 12.5753 9.42472 12.1065 9.70597C11.6378 9.98722 11.0838 10.1278 10.4446 10.1278ZM10.4531 8.89205C10.7997 8.89205 11.0895 8.79687 11.3224 8.60653C11.5554 8.41335 11.7287 8.15483 11.8423 7.83097C11.9588 7.5071 12.017 7.14631 12.017 6.74858C12.017 6.34801 11.9588 5.9858 11.8423 5.66193C11.7287 5.33523 11.5554 5.07528 11.3224 4.8821C11.0895 4.68892 10.7997 4.59233 10.4531 4.59233C10.098 4.59233 9.80256 4.68892 9.56676 4.8821C9.33381 5.07528 9.15909 5.33523 9.04261 5.66193C8.92898 5.9858 8.87216 6.34801 8.87216 6.74858C8.87216 7.14631 8.92898 7.5071 9.04261 7.83097C9.15909 8.15483 9.33381 8.41335 9.56676 8.60653C9.80256 8.79687 10.098 8.89205 10.4531 8.89205ZM17.7369 12.5909C17.1829 12.5909 16.707 12.5156 16.3093 12.3651C15.9116 12.2173 15.592 12.0185 15.3505 11.7685C15.109 11.5185 14.9414 11.2415 14.8477 10.9375L16.2369 10.6009C16.2994 10.7287 16.3903 10.8551 16.5096 10.9801C16.6289 11.108 16.7894 11.2131 16.9911 11.2955C17.1957 11.3807 17.4528 11.4233 17.7624 11.4233C18.1999 11.4233 18.5621 11.3168 18.8491 11.1037C19.136 10.8935 19.2795 10.5469 19.2795 10.0639V8.82386H19.2028C19.1232 8.98295 19.0067 9.14631 18.8533 9.31392C18.7028 9.48153 18.5025 9.62216 18.2525 9.7358C18.0053 9.84943 17.6942 9.90625 17.3192 9.90625C16.8164 9.90625 16.3604 9.78835 15.9513 9.55256C15.5451 9.31392 15.2212 8.95881 14.9798 8.48722C14.7411 8.01278 14.6218 7.41903 14.6218 6.70597C14.6218 5.98722 14.7411 5.38068 14.9798 4.88636C15.2212 4.3892 15.5465 4.01278 15.9556 3.7571C16.3647 3.49858 16.8207 3.36932 17.3235 3.36932C17.707 3.36932 18.0224 3.43466 18.2695 3.56534C18.5195 3.69318 18.7184 3.84801 18.8661 4.02983C19.0138 4.20881 19.1261 4.37784 19.2028 4.53693H19.288V3.45455H20.8093V10.1065C20.8093 10.6662 20.6758 11.1293 20.4087 11.4957C20.1417 11.8622 19.7766 12.1364 19.3136 12.3182C18.8505 12.5 18.3249 12.5909 17.7369 12.5909ZM17.7496 8.69602C18.0763 8.69602 18.3548 8.61648 18.5849 8.45739C18.815 8.2983 18.9897 8.0696 19.109 7.77131C19.2283 7.47301 19.288 7.11506 19.288 6.69744C19.288 6.28551 19.2283 5.92472 19.109 5.61506C18.9925 5.3054 18.8192 5.06534 18.5891 4.89489C18.3619 4.72159 18.082 4.63494 17.7496 4.63494C17.4059 4.63494 17.119 4.72443 16.8888 4.90341C16.6587 5.08239 16.4854 5.32812 16.369 5.64062C16.2525 5.95028 16.1942 6.30256 16.1942 6.69744C16.1942 7.09801 16.2525 7.44886 16.369 7.75C16.4883 8.0483 16.663 8.28125 16.8931 8.44886C17.1261 8.61364 17.4116 8.69602 17.7496 8.69602ZM22.3903 10V3.45455H23.9329V10H22.3903ZM23.1658 2.52557C22.9215 2.52557 22.7113 2.4446 22.5352 2.28267C22.359 2.1179 22.271 1.92045 22.271 1.69034C22.271 1.45739 22.359 1.25994 22.5352 1.09801C22.7113 0.933238 22.9215 0.850852 23.1658 0.850852C23.413 0.850852 23.6232 0.933238 23.7965 1.09801C23.9727 1.25994 24.0607 1.45739 24.0607 1.69034C24.0607 1.92045 23.9727 2.1179 23.7965 2.28267C23.6232 2.4446 23.413 2.52557 23.1658 2.52557ZM27.0618 6.16477V10H25.5192V3.45455H26.9936V4.56676H27.0703C27.2209 4.20028 27.4609 3.90909 27.7905 3.69318C28.1229 3.47727 28.5334 3.36932 29.022 3.36932C29.4737 3.36932 29.8672 3.46591 30.2024 3.65909C30.5405 3.85227 30.8018 4.1321 30.9865 4.49858C31.174 4.86506 31.2663 5.30966 31.2635 5.83239V10H29.7209V6.07102C29.7209 5.63352 29.6072 5.29119 29.38 5.04403C29.1555 4.79687 28.8445 4.6733 28.4467 4.6733C28.1768 4.6733 27.9368 4.73295 27.7266 4.85227C27.5192 4.96875 27.3558 5.13778 27.2365 5.35938C27.12 5.58097 27.0618 5.84943 27.0618 6.16477ZM35.8764 10V1.27273H37.4574V8.67472H41.3011V10H35.8764ZM45.4602 10.1278C44.821 10.1278 44.267 9.98722 43.7983 9.70597C43.3295 9.42472 42.9659 9.03125 42.7074 8.52557C42.4517 8.01989 42.3239 7.42898 42.3239 6.75284C42.3239 6.0767 42.4517 5.48437 42.7074 4.97585C42.9659 4.46733 43.3295 4.07244 43.7983 3.79119C44.267 3.50994 44.821 3.36932 45.4602 3.36932C46.0994 3.36932 46.6534 3.50994 47.1222 3.79119C47.5909 4.07244 47.9531 4.46733 48.2088 4.97585C48.4673 5.48437 48.5966 6.0767 48.5966 6.75284C48.5966 7.42898 48.4673 8.01989 48.2088 8.52557C47.9531 9.03125 47.5909 9.42472 47.1222 9.70597C46.6534 9.98722 46.0994 10.1278 45.4602 10.1278ZM45.4688 8.89205C45.8153 8.89205 46.1051 8.79687 46.3381 8.60653C46.571 8.41335 46.7443 8.15483 46.858 7.83097C46.9744 7.5071 47.0327 7.14631 47.0327 6.74858C47.0327 6.34801 46.9744 5.9858 46.858 5.66193C46.7443 5.33523 46.571 5.07528 46.3381 4.8821C46.1051 4.68892 45.8153 4.59233 45.4688 4.59233C45.1136 4.59233 44.8182 4.68892 44.5824 4.8821C44.3494 5.07528 44.1747 5.33523 44.0582 5.66193C43.9446 5.9858 43.8878 6.34801 43.8878 6.74858C43.8878 7.14631 43.9446 7.5071 44.0582 7.83097C44.1747 8.15483 44.3494 8.41335 44.5824 8.60653C44.8182 8.79687 45.1136 8.89205 45.4688 8.89205ZM52.7525 12.5909C52.1985 12.5909 51.7227 12.5156 51.3249 12.3651C50.9272 12.2173 50.6076 12.0185 50.3661 11.7685C50.1246 11.5185 49.957 11.2415 49.8633 10.9375L51.2525 10.6009C51.315 10.7287 51.4059 10.8551 51.5252 10.9801C51.6445 11.108 51.805 11.2131 52.0067 11.2955C52.2113 11.3807 52.4684 11.4233 52.7781 11.4233C53.2156 11.4233 53.5778 11.3168 53.8647 11.1037C54.1516 10.8935 54.2951 10.5469 54.2951 10.0639V8.82386H54.2184C54.1388 8.98295 54.0224 9.14631 53.869 9.31392C53.7184 9.48153 53.5181 9.62216 53.2681 9.7358C53.021 9.84943 52.7099 9.90625 52.3349 9.90625C51.832 9.90625 51.3761 9.78835 50.967 9.55256C50.5607 9.31392 50.2369 8.95881 49.9954 8.48722C49.7567 8.01278 49.6374 7.41903 49.6374 6.70597C49.6374 5.98722 49.7567 5.38068 49.9954 4.88636C50.2369 4.3892 50.5621 4.01278 50.9712 3.7571C51.3803 3.49858 51.8363 3.36932 52.3391 3.36932C52.7227 3.36932 53.038 3.43466 53.2852 3.56534C53.5352 3.69318 53.734 3.84801 53.8817 4.02983C54.0295 4.20881 54.1417 4.37784 54.2184 4.53693H54.3036V3.45455H55.8249V10.1065C55.8249 10.6662 55.6914 11.1293 55.4244 11.4957C55.1573 11.8622 54.7923 12.1364 54.3292 12.3182C53.8661 12.5 53.3406 12.5909 52.7525 12.5909ZM52.7653 8.69602C53.092 8.69602 53.3704 8.61648 53.6005 8.45739C53.8306 8.2983 54.0053 8.0696 54.1246 7.77131C54.244 7.47301 54.3036 7.11506 54.3036 6.69744C54.3036 6.28551 54.244 5.92472 54.1246 5.61506C54.0082 5.3054 53.8349 5.06534 53.6048 4.89489C53.3775 4.72159 53.0977 4.63494 52.7653 4.63494C52.4215 4.63494 52.1346 4.72443 51.9045 4.90341C51.6744 5.08239 51.5011 5.32812 51.3846 5.64062C51.2681 5.95028 51.2099 6.30256 51.2099 6.69744C51.2099 7.09801 51.2681 7.44886 51.3846 7.75C51.5039 8.0483 51.6786 8.28125 51.9087 8.44886C52.1417 8.61364 52.4272 8.69602 52.7653 8.69602Z" fill="white"/>
</svg>
