<svg width="18" height="16" viewBox="0 0 18 16" fill="none" xmlns="http://www.w3.org/2000/svg">
<g clip-path="url(#clip0_75_186)">
<path d="M13.3318 8.79417C13.1722 8.72193 12.9877 8.71039 12.8188 8.7621C12.6498 8.81381 12.5104 8.92453 12.431 9.06993C12.0055 9.8532 11.358 10.5185 10.5556 10.997C9.75313 11.4755 8.82497 11.7497 7.86719 11.7913C6.90942 11.8328 5.95686 11.6402 5.1082 11.2334C4.25954 10.8266 3.54563 10.2204 3.04042 9.47748C2.53521 8.73461 2.25707 7.88212 2.23481 7.00831C2.21256 6.13451 2.44699 5.27117 2.91384 4.50773C3.38068 3.74428 4.06295 3.10848 4.88999 2.6662C5.71702 2.22391 6.65874 1.99122 7.6176 1.99223C8.62002 1.98827 9.60335 2.24202 10.4547 2.72436C11.3061 3.20669 11.9911 3.89807 12.431 4.71913C12.5112 4.8654 12.6519 4.97663 12.8221 5.02834C12.9923 5.08006 13.178 5.06802 13.3385 4.99489C13.499 4.92175 13.621 4.79351 13.6777 4.63837C13.7345 4.48322 13.7213 4.31389 13.641 4.16762C12.9665 2.93025 11.853 1.93699 10.4812 1.34906C9.10948 0.761137 7.56002 0.613051 6.08432 0.928843C4.60863 1.24463 3.29333 2.00577 2.3519 3.0887C1.41048 4.17164 0.898193 5.51281 0.898193 6.89453C0.898193 8.27625 1.41048 9.61742 2.3519 10.7004C3.29333 11.7833 4.60863 12.5444 6.08432 12.8602C7.56002 13.176 9.10948 13.0279 10.4812 12.44C11.853 11.8521 12.9665 10.8588 13.641 9.62144C13.6811 9.54874 13.7049 9.4695 13.711 9.38834C13.7171 9.30718 13.7054 9.22572 13.6766 9.14872C13.6478 9.07171 13.6025 9.00071 13.5433 8.93983C13.4841 8.87896 13.4122 8.82944 13.3318 8.79417ZM13.6679 6.28174H7.22097L8.76716 4.87846C8.82984 4.82132 8.87956 4.75349 8.91349 4.67884C8.94741 4.60419 8.96487 4.52418 8.96487 4.44338C8.96487 4.36258 8.94741 4.28257 8.91349 4.20792C8.87956 4.13326 8.82984 4.06544 8.76716 4.0083C8.70448 3.95116 8.63007 3.90584 8.54817 3.87492C8.46628 3.844 8.3785 3.82808 8.28986 3.82808C8.20122 3.82808 8.11344 3.844 8.03155 3.87492C7.94965 3.90584 7.87524 3.95116 7.81256 4.0083L5.12353 6.45945C5.06233 6.51773 5.01435 6.58645 4.98236 6.66167C4.91512 6.81086 4.91512 6.9782 4.98236 7.12739C5.01435 7.20261 5.06233 7.27133 5.12353 7.32961L7.81256 9.78076C7.87505 9.83819 7.94941 9.88378 8.03133 9.91489C8.11325 9.946 8.20111 9.96202 8.28986 9.96202C8.37861 9.96202 8.46647 9.946 8.54839 9.91489C8.63032 9.88378 8.70467 9.83819 8.76716 9.78076C8.83017 9.72379 8.88018 9.65602 8.91431 9.58134C8.94844 9.50667 8.96601 9.42658 8.96601 9.34568C8.96601 9.26479 8.94844 9.18469 8.91431 9.11002C8.88018 9.03534 8.83017 8.96757 8.76716 8.9106L7.22097 7.50732H13.6679C13.8462 7.50732 14.0172 7.44276 14.1433 7.32784C14.2693 7.21292 14.3402 7.05705 14.3402 6.89453C14.3402 6.73201 14.2693 6.57614 14.1433 6.46122C14.0172 6.3463 13.8462 6.28174 13.6679 6.28174Z" fill="white"/>
</g>
<defs>
<clipPath id="clip0_75_186">
<rect width="16.1342" height="14.7069" fill="white" transform="translate(0.898193 0.406189)"/>
</clipPath>
</defs>
</svg>
