<svg width="36" height="38" viewBox="0 0 36 38" fill="none" xmlns="http://www.w3.org/2000/svg">
<g clip-path="url(#clip0_75_43)">
<path d="M0.495605 0.500015H35.5044V37.5H0.495605V0.500015Z" fill="#fff"/>
<path d="M35.5044 38H0.49561C0.221663 38 0 37.7764 0 37.5V0.50002C0 0.223636 0.221663 0 0.49561 0H35.5044C35.7784 0 36 0.223636 36 0.50002V37.5C36 37.7764 35.7784 38 35.5044 38ZM0.99122 37H35.0088V1.00004H0.99122V37Z" fill="#fff"/>
<path d="M5.30141 11.3281H3.89502V4.08594H5.4718L8.34757 9.16992V4.08594H9.75497V11.3281H8.25661L5.30141 6.10934V11.3281Z" fill="#fff"/>
<path d="M11.1963 11.3281V4.08594H16.4822V5.375H12.6937V6.91408H16.2093V8.16116H12.6937V10.04H16.6536V11.3281H11.1963Z" fill="#fff"/>
<path d="M19.2515 11.3281L17.2556 4.08594H18.8159L20.0142 9.38476H20.0113L21.0412 4.08594H22.6364L23.675 9.34081H23.677L24.8666 4.08594H26.3824L24.3865 11.3281H22.9588L21.8059 5.63088L20.6792 11.3281H19.2515Z" fill="#fff"/>
<path d="M31.1903 6.25586C31.1631 5.91115 31.0131 5.64063 30.7411 5.44044C30.4672 5.23828 30.111 5.13869 29.6696 5.13869C29.2873 5.13869 28.9911 5.22365 28.7752 5.3916C28.5603 5.56053 28.4519 5.79688 28.4519 6.09765C28.4519 6.31447 28.5662 6.48145 28.7898 6.59865C29.0133 6.71874 29.4818 6.85644 30.2029 7.01759C31.2493 7.2539 31.9482 7.5254 32.3025 7.83402C32.6538 8.13866 32.83 8.63183 32.83 9.30568C32.83 9.98633 32.5648 10.5273 32.0334 10.9248C31.5039 11.3252 30.7828 11.5244 29.8768 11.5244C28.9698 11.5244 28.2603 11.3135 27.7473 10.8887C27.2381 10.4639 26.9652 9.86232 26.9283 9.08008H28.3726C28.388 9.46291 28.5274 9.75976 28.7888 9.96387C29.0472 10.1719 29.4121 10.2773 29.8758 10.2773C30.3549 10.2773 30.7266 10.1992 30.9947 10.043C31.2628 9.88674 31.3984 9.66995 31.3984 9.39454C31.3984 9.12403 31.3016 8.92383 31.108 8.79493C30.9183 8.66799 30.5156 8.53322 29.899 8.39552C28.7617 8.14258 28.0009 7.86329 27.6175 7.56445C27.2381 7.26854 27.0465 6.80859 27.0465 6.17967C27.0465 5.47753 27.2991 4.92191 27.8034 4.50782C28.3087 4.09569 28.9901 3.89162 29.8468 3.89162C30.6511 3.89162 31.3055 4.10254 31.8088 4.5293C32.3141 4.95607 32.5948 5.53122 32.649 6.25586H31.1903Z" fill="#fff"/>
<path d="M19.2497 16.7824H3.82825C3.55431 16.7824 3.33264 16.5588 3.33264 16.2824C3.33264 16.0061 3.55431 15.7824 3.82825 15.7824H19.2496C19.5235 15.7824 19.7452 16.0061 19.7452 16.2824C19.7452 16.5588 19.5235 16.7825 19.2496 16.7825L19.2497 16.7824Z" fill="#fff"/>
<path d="M24.403 16.2823H32.3198V25.5322H24.403V16.2823Z" fill="#fff"/>
<path d="M32.3199 26.0323H24.4031C24.1291 26.0323 23.9075 25.8086 23.9075 25.5322V16.2822C23.9075 16.0058 24.1291 15.7822 24.4031 15.7822H32.3199C32.5938 15.7822 32.8155 16.0058 32.8155 16.2822V25.5322C32.8155 25.8086 32.5938 26.0322 32.3199 26.0322V26.0323ZM24.8986 25.0322H31.8243V16.7822H24.8986V25.0322Z" fill="#fff"/>
<path d="M19.2497 18.6738H3.82825C3.55431 18.6738 3.33264 18.4502 3.33264 18.1739C3.33264 17.8975 3.55431 17.6738 3.82825 17.6738H19.2496C19.5235 17.6738 19.7452 17.8975 19.7452 18.1739C19.7452 18.4502 19.5235 18.6738 19.2496 18.6738L19.2497 18.6738Z" fill="#fff"/>
<path d="M19.2497 20.4971H3.82825C3.55431 20.4971 3.33264 20.2735 3.33264 19.997C3.33264 19.7207 3.55431 19.4971 3.82825 19.4971H19.2496C19.5235 19.4971 19.7452 19.7207 19.7452 19.9971C19.7452 20.2735 19.5235 20.4971 19.2496 20.4971L19.2497 20.4971Z" fill="#fff"/>
<path d="M19.2497 22.3887H3.82825C3.55431 22.3887 3.33264 22.165 3.33264 21.8886C3.33264 21.6123 3.55431 21.3887 3.82825 21.3887H19.2496C19.5235 21.3887 19.7452 21.6123 19.7452 21.8887C19.7452 22.1651 19.5235 22.3887 19.2496 22.3887L19.2497 22.3887Z" fill="#fff"/>
<path d="M19.2497 24.2813H3.82825C3.55431 24.2813 3.33264 24.0576 3.33264 23.7812C3.33264 23.5048 3.55431 23.2812 3.82825 23.2812H19.2496C19.5235 23.2812 19.7452 23.5048 19.7452 23.7813C19.7452 24.0577 19.5235 24.2813 19.2496 24.2813L19.2497 24.2813Z" fill="#fff"/>
<path d="M19.2497 26.1719H3.82825C3.55431 26.1719 3.33264 25.9483 3.33264 25.6719C3.33264 25.3955 3.55431 25.1719 3.82825 25.1719H19.2496C19.5235 25.1719 19.7452 25.3955 19.7452 25.6719C19.7452 25.9483 19.5235 26.1719 19.2496 26.1719L19.2497 26.1719Z" fill="#fff"/>
<path d="M19.2497 27.9951H3.82825C3.55431 27.9951 3.33264 27.7715 3.33264 27.4951C3.33264 27.2187 3.55431 26.9951 3.82825 26.9951H19.2496C19.5235 26.9951 19.7452 27.2187 19.7452 27.4951C19.7452 27.7715 19.5235 27.9951 19.2496 27.9951L19.2497 27.9951Z" fill="#fff"/>
<path d="M19.2497 29.8867H3.82825C3.55431 29.8867 3.33264 29.6631 3.33264 29.3867C3.33264 29.1103 3.55431 28.8867 3.82825 28.8867H19.2496C19.5235 28.8867 19.7452 29.1104 19.7452 29.3868C19.7452 29.6631 19.5236 29.8867 19.2497 29.8867Z" fill="#fff"/>
<path d="M19.2497 33.7539H3.82825C3.55431 33.7539 3.33264 33.5303 3.33264 33.2539C3.33264 32.9776 3.55431 32.7539 3.82825 32.7539H19.2496C19.5235 32.7539 19.7452 32.9775 19.7452 33.2539C19.7452 33.5303 19.5236 33.7539 19.2497 33.7539Z" fill="#fff"/>
<path d="M19.2497 31.8477H3.82825C3.55431 31.8477 3.33264 31.624 3.33264 31.3476C3.33264 31.0713 3.55431 30.8477 3.82825 30.8477H19.2496C19.5235 30.8477 19.7452 31.0713 19.7452 31.3477C19.7452 31.6241 19.5236 31.8477 19.2497 31.8477Z" fill="#fff"/>
<path d="M32.3973 29.959H24.1455C23.8716 29.959 23.6499 29.7354 23.6499 29.459C23.6499 29.1826 23.8716 28.959 24.1455 28.959H32.3973C32.6712 28.959 32.8929 29.1826 32.8929 29.459C32.8929 29.7354 32.6712 29.959 32.3973 29.959Z" fill="#fff"/>
<path d="M32.3973 31.8574H24.1455C23.8716 31.8574 23.6499 31.6338 23.6499 31.3574C23.6499 31.081 23.8716 30.8574 24.1455 30.8574H32.3973C32.6712 30.8574 32.8929 31.0811 32.8929 31.3575C32.8929 31.6338 32.6712 31.8574 32.3973 31.8574Z" fill="#fff"/>
<path d="M32.3973 33.7539H24.1455C23.8716 33.7539 23.6499 33.5303 23.6499 33.2539C23.6499 32.9776 23.8716 32.7539 24.1455 32.7539H32.3973C32.6712 32.7539 32.8929 32.9775 32.8929 33.2539C32.8929 33.5303 32.6712 33.7539 32.3973 33.7539Z" fill="#fff"/>
<path d="M32.4631 28.0625H24.2123C23.9383 28.0625 23.7167 27.8389 23.7167 27.5625C23.7167 27.2861 23.9383 27.0625 24.2123 27.0625H32.4631C32.737 27.0625 32.9587 27.2861 32.9587 27.5625C32.9587 27.8389 32.737 28.0625 32.4631 28.0625V28.0625Z" fill="#fff"/>
</g>
<defs>
<clipPath id="clip0_75_43">
<rect width="36" height="38" fill="#fff"/>
</clipPath>
</defs>
</svg>
