<svg width="14" height="16" viewBox="0 0 14 16" fill="none" xmlns="http://www.w3.org/2000/svg">
<path d="M13.7843 11.6987C13.6333 11.4133 13.4501 11.1278 13.2452 10.8252C12.7578 10.1805 12.4199 9.42371 12.2587 8.61562L12.0323 5.24702C11.8975 2.63778 10.4581 0 7.5956 0H6.39883C3.53629 0 2.08615 2.63778 1.9406 5.24131L1.71419 8.61562C1.5537 9.43087 1.21591 10.1952 0.72766 10.848C0.544372 11.1449 0.361083 11.419 0.237093 11.6759C0.104024 11.8651 0.0234327 12.0898 0.00438522 12.3248C-0.0146623 12.5598 0.0285901 12.7958 0.129276 13.0062C0.246749 13.2272 0.419809 13.4093 0.629195 13.5323C0.838582 13.6552 1.07608 13.7143 1.31526 13.7028H5.477C5.38834 13.9615 5.35985 14.239 5.39394 14.5119C5.42803 14.7847 5.52371 15.0448 5.67285 15.2702C5.822 15.4956 6.02024 15.6796 6.25077 15.8066C6.4813 15.9337 6.73735 16 6.99721 16C7.25708 16 7.51312 15.9337 7.74366 15.8066C7.97419 15.6796 8.17242 15.4956 8.32157 15.2702C8.47072 15.0448 8.5664 14.7847 8.60049 14.5119C8.63458 14.239 8.60609 13.9615 8.51743 13.7028H12.6792C12.9205 13.7121 13.1596 13.6496 13.3692 13.5225C13.5788 13.3953 13.7506 13.2086 13.8652 12.9834C13.9659 12.7825 14.0117 12.5558 13.9974 12.3289C13.9832 12.1019 13.9093 11.8837 13.7843 11.6987ZM7.5363 14.2737C7.5363 14.3866 7.50468 14.497 7.44545 14.5909C7.38621 14.6848 7.30202 14.758 7.20351 14.8012C7.10501 14.8444 6.99662 14.8557 6.89204 14.8337C6.78747 14.8117 6.69142 14.7573 6.61602 14.6774C6.54063 14.5976 6.48929 14.4959 6.46849 14.3851C6.44769 14.2744 6.45836 14.1596 6.49917 14.0552C6.53997 13.9509 6.60906 13.8617 6.69771 13.799C6.78637 13.7363 6.89059 13.7028 6.99721 13.7028C7.14019 13.7028 7.27731 13.7629 7.37841 13.87C7.4795 13.9771 7.5363 14.1223 7.5363 14.2737ZM12.9271 12.4638C12.9271 12.5095 12.8355 12.5609 12.7007 12.5609H1.31526C1.18049 12.5609 1.11041 12.5095 1.08885 12.4638C1.06728 12.4181 1.08885 12.3553 1.14276 12.264C1.28831 12.0013 1.45542 11.7273 1.62793 11.4532C2.16702 10.6311 2.7061 9.69471 2.78696 8.69555L3.01877 5.32124C3.13198 3.39144 4.08616 1.1419 6.39883 1.1419H7.5956C9.90827 1.1419 10.8625 3.39144 10.9757 5.32695L11.2075 8.69555C11.2722 9.70613 11.849 10.6311 12.3881 11.4532C12.5606 11.7273 12.7277 12.0242 12.9002 12.3154C12.9174 12.335 12.929 12.3593 12.9337 12.3855C12.9385 12.4117 12.9362 12.4389 12.9271 12.4638Z" fill="black"/>
</svg>
