<svg width="36" height="36" viewBox="0 0 36 36" fill="none" xmlns="http://www.w3.org/2000/svg">
<path opacity="0.4" d="M27.4965 10.0564C27.4017 10.0406 27.2911 10.0406 27.1964 10.0564C25.0164 9.97738 23.2788 8.19237 23.2788 5.98084C23.2788 3.72193 25.0954 1.90532 27.3543 1.90532C29.6132 1.90532 31.4299 3.73773 31.4299 5.98084C31.4141 8.19237 29.6764 9.97738 27.4965 10.0564Z" stroke="#8DB538" stroke-width="3" stroke-linecap="round" stroke-linejoin="round"/>
<path opacity="0.4" d="M25.8684 21.5566C28.0326 21.9199 30.4179 21.5408 32.0923 20.4193C34.3196 18.9344 34.3196 16.5017 32.0923 15.0168C30.4021 13.8952 27.9852 13.5161 25.821 13.8952" stroke="#8DB538" stroke-width="3" stroke-linecap="round" stroke-linejoin="round"/>
<path opacity="0.4" d="M8.49073 10.0564C8.58551 10.0406 8.69608 10.0406 8.79086 10.0564C10.9708 9.97738 12.7084 8.19237 12.7084 5.98084C12.7084 3.72193 10.8918 1.90532 8.6329 1.90532C6.37398 1.90532 4.55737 3.73773 4.55737 5.98084C4.57317 8.19237 6.3108 9.97738 8.49073 10.0564Z" stroke="#8DB538" stroke-width="3" stroke-linecap="round" stroke-linejoin="round"/>
<path opacity="0.4" d="M10.1192 21.5566C7.95507 21.9199 5.56978 21.5408 3.89534 20.4193C1.66802 18.9344 1.66802 16.5017 3.89534 15.0168C5.58558 13.8952 8.00246 13.5161 10.1666 13.8952" stroke="#8DB538" stroke-width="3" stroke-linecap="round" stroke-linejoin="round"/>
<path d="M18.0214 21.8568C17.9267 21.841 17.8161 21.841 17.7213 21.8568C15.5414 21.7778 13.8037 19.9928 13.8037 17.7812C13.8037 15.5223 15.6204 13.7057 17.8793 13.7057C20.1382 13.7057 21.9548 15.5381 21.9548 17.7812C21.939 19.9928 20.2014 21.7936 18.0214 21.8568Z" stroke="#8DB538" stroke-width="3" stroke-linecap="round" stroke-linejoin="round"/>
<path d="M13.4259 26.833C11.1985 28.3179 11.1985 30.7504 13.4259 32.2353C15.9533 33.9255 20.092 33.9255 22.6195 32.2353C24.8468 30.7504 24.8468 28.3179 22.6195 26.833C20.1078 25.1586 15.9533 25.1586 13.4259 26.833Z" stroke="#8DB538" stroke-width="3" stroke-linecap="round" stroke-linejoin="round"/>
</svg>
