<svg width="15" height="13" viewBox="0 0 15 13" fill="none" xmlns="http://www.w3.org/2000/svg">
<path d="M1.88192 11.5038C1.95965 11.5038 2.02263 11.4408 2.02263 11.3631V7.40793C2.02263 7.3302 1.95965 7.26722 1.88192 7.26722H0.756177C0.737697 7.26721 0.719397 7.27085 0.702323 7.27792C0.685249 7.28499 0.669735 7.29536 0.656667 7.30842C0.643599 7.32149 0.633234 7.33701 0.626164 7.35408C0.619094 7.37115 0.615456 7.38945 0.61546 7.40793V11.3631C0.61546 11.4408 0.678439 11.5038 0.756177 11.5038H1.88192ZM1.88192 12.0667H0.756177C0.367583 12.0667 0.0525907 11.7517 0.0525907 11.3631V7.40793C0.0525907 7.01934 0.367583 6.70435 0.756177 6.70435H1.88192C2.27051 6.70435 2.5855 7.01934 2.5855 7.40793V11.3631C2.5855 11.7517 2.27051 12.0667 1.88192 12.0667ZM5.70786 11.5038C5.7856 11.5038 5.84858 11.4408 5.84858 11.3631V6.59121C5.84858 6.51347 5.7856 6.45049 5.70786 6.45049H4.58212C4.56364 6.45049 4.54534 6.45413 4.52827 6.4612C4.51119 6.46827 4.49568 6.47863 4.48261 6.4917C4.46954 6.50477 4.45918 6.52028 4.45211 6.53736C4.44504 6.55443 4.4414 6.57273 4.4414 6.59121V11.3631C4.4414 11.4408 4.50438 11.5038 4.58212 11.5038H5.70786ZM5.70786 12.0667H4.58212C4.19353 12.0667 3.87853 11.7517 3.87853 11.3631V6.59121C3.87853 6.20262 4.19353 5.88762 4.58212 5.88762H5.70786C6.09645 5.88762 6.41145 6.20262 6.41145 6.59121V11.3631C6.41145 11.7517 6.09645 12.0667 5.70786 12.0667ZM9.5338 11.5123C9.61154 11.5123 9.67452 11.4493 9.67452 11.3716V5.78284C9.67452 5.70519 9.61147 5.64212 9.5338 5.64212H8.40806C8.3304 5.64212 8.26735 5.70519 8.26735 5.78284V11.3716C8.26735 11.4493 8.33033 11.5123 8.40806 11.5123H9.5338ZM9.5338 12.0752H8.40806C8.01947 12.0752 7.70448 11.7602 7.70448 11.3716V5.78284C7.70448 5.39434 8.0195 5.07926 8.40806 5.07926H9.5338C9.92237 5.07926 10.2374 5.39434 10.2374 5.78284V11.3716C10.2374 11.7602 9.9224 12.0752 9.5338 12.0752ZM13.3597 11.5123C13.4375 11.5123 13.5005 11.4493 13.5005 11.3716V5.07928C13.5005 5.00154 13.4375 4.93857 13.3597 4.93857H12.234C12.2155 4.93856 12.1972 4.9422 12.1802 4.94927C12.1631 4.95634 12.1476 4.96671 12.1345 4.97977C12.1214 4.99284 12.1111 5.00835 12.104 5.02543C12.0969 5.0425 12.0933 5.0608 12.0933 5.07928V11.3716C12.0933 11.4493 12.1563 11.5123 12.234 11.5123H13.3597ZM13.3597 12.0752H12.234C11.8454 12.0752 11.5304 11.7602 11.5304 11.3716V5.07928C11.5304 4.69069 11.8454 4.3757 12.234 4.3757H13.3597C13.7483 4.3757 14.0633 4.69069 14.0633 5.07928V11.3716C14.0633 11.7602 13.7483 12.0752 13.3597 12.0752ZM13.2745 0.505833C9.30848 2.74026 4.88205 4.05842 0.26445 4.33773C0.109304 4.34711 -0.00886316 4.48049 0.000522576 4.63564C0.00990831 4.79079 0.143287 4.90895 0.298434 4.89957C5.00169 4.61508 9.51088 3.27226 13.5508 0.996228C13.6862 0.919932 13.7341 0.74831 13.6578 0.612883C13.5815 0.477456 13.4099 0.429538 13.2745 0.505833Z" fill="white"/>
</svg>
