<svg width="15" height="13" viewBox="0 0 15 13" fill="none" xmlns="http://www.w3.org/2000/svg">
<g clip-path="url(#clip0_75_161)">
<path d="M13.0225 3.65727L9.86424 0.870664C9.6722 0.700345 9.41009 0.603358 9.1402 0.603358L3.19221 0.589165C2.47077 0.589165 1.88428 1.11905 1.88428 1.77194V11.5132C1.88428 12.1543 2.48894 12.6984 3.20519 12.6984H12.0026C12.7059 12.6984 13.2768 12.1661 13.2768 11.5109V4.22264C13.2768 4.00264 13.186 3.80157 13.0225 3.65727ZM9.85126 2.17644L11.4836 3.61469H10.1341C9.98361 3.61469 9.85126 3.50824 9.85126 3.3876V2.17644ZM12.0026 11.7522H3.20519C3.05986 11.7522 2.92232 11.6362 2.92232 11.5109V1.77194C2.92232 1.64656 3.04948 1.53538 3.19221 1.53538L8.81322 1.54957V3.3876C8.81322 4.03339 9.4049 4.56091 10.1341 4.56091H12.2388V11.5109C12.2388 11.6291 12.1505 11.7522 12.0026 11.7522Z" fill="white"/>
<path d="M4.14197 6.90283C4.14197 7.16304 4.37553 7.37593 4.66099 7.37593H9.20243C9.48789 7.37593 9.72145 7.16304 9.72145 6.90283C9.72145 6.64262 9.48789 6.42972 9.20243 6.42972H4.66099C4.37553 6.42972 4.14197 6.64262 4.14197 6.90283Z" fill="white"/>
<path d="M4.63511 5.4835H7.64544C7.9309 5.4835 8.16446 5.2706 8.16446 5.01039C8.16446 4.75018 7.9309 4.53728 7.64544 4.53728H4.63511C4.34965 4.53728 4.11609 4.75018 4.11609 5.01039C4.11609 5.2706 4.34965 5.4835 4.63511 5.4835Z" fill="white"/>
<path d="M10.5 8.32216H4.66099C4.37553 8.32216 4.14197 8.53506 4.14197 8.79527C4.14197 9.05548 4.37553 9.26838 4.66099 9.26838H10.5C10.7854 9.26838 11.019 9.05548 11.019 8.79527C11.019 8.53506 10.7854 8.32216 10.5 8.32216Z" fill="white"/>
</g>
<defs>
<clipPath id="clip0_75_161">
<rect width="13.287" height="12.1116" fill="white" transform="translate(0.898193 0.586838)"/>
</clipPath>
</defs>
</svg>
