<svg width="13" height="13" viewBox="0 0 13 13" fill="none" xmlns="http://www.w3.org/2000/svg">
<g clip-path="url(#clip0_75_20)">
<path d="M5.95833 11.9167C2.67313 11.9167 0 9.24354 0 5.95833C0 2.67313 2.67313 0 5.95833 0C9.24354 0 11.9167 2.67313 11.9167 5.95833C11.9167 9.24354 9.24354 11.9167 5.95833 11.9167ZM5.95833 1.08333C3.27058 1.08333 1.08333 3.27004 1.08333 5.95833C1.08333 8.64663 3.27058 10.8333 5.95833 10.8333C8.64608 10.8333 10.8333 8.64663 10.8333 5.95833C10.8333 3.27004 8.64608 1.08333 5.95833 1.08333Z" fill="black"/>
<path d="M12.4584 13C12.3872 13.0001 12.3168 12.9861 12.2511 12.9589C12.1853 12.9316 12.1257 12.8917 12.0754 12.8413L9.47813 10.244C9.37656 10.1424 9.31953 10.0045 9.31958 9.86085C9.31963 9.71716 9.37676 9.57938 9.4784 9.47781C9.58004 9.37625 9.71786 9.31921 9.86155 9.31927C10.0052 9.31932 10.143 9.37644 10.2446 9.47808L12.8413 12.0754C12.9173 12.151 12.9691 12.2476 12.9902 12.3527C13.0112 12.4578 13.0005 12.5669 12.9595 12.6659C12.9185 12.765 12.8489 12.8497 12.7597 12.9091C12.6705 12.9686 12.5656 13.0002 12.4584 13Z" fill="black"/>
</g>
<defs>
<clipPath id="clip0_75_20">
<rect width="13" height="13" fill="white"/>
</clipPath>
</defs>
</svg>
