<svg width="15" height="13" viewBox="0 0 15 13" fill="none" xmlns="http://www.w3.org/2000/svg">
<path d="M7.52219 7.2955C9.48991 7.2955 11.068 5.76758 11.068 3.90426C11.068 2.04094 9.48991 0.494385 7.52219 0.494385C5.55447 0.494385 3.9764 2.02231 3.9764 3.88562C3.9764 5.74894 5.55447 7.2955 7.52219 7.2955ZM7.52219 1.38878C8.96388 1.38878 10.1328 2.50677 10.1328 3.88562C10.1328 5.26448 8.96388 6.38247 7.52219 6.38247C6.0805 6.38247 4.91156 5.28311 4.91156 3.90426C4.91156 2.5254 6.0805 1.38878 7.52219 1.38878ZM1.36577 12.606H13.7176C13.9708 12.606 14.1851 12.401 14.1851 12.1588C14.1851 9.81098 12.1785 7.89176 9.72369 7.89176H5.35965C2.90487 7.89176 0.898193 9.81098 0.898193 12.1588C0.898193 12.401 1.1125 12.606 1.36577 12.606ZM5.35965 8.78615H9.72369C11.5161 8.78615 12.9772 10.0532 13.211 11.7116H1.87231C2.1061 10.0532 3.56727 8.78615 5.35965 8.78615Z" fill="white"/>
</svg>
